<mxfile host="app.diagrams.net" modified="2023-05-08T17:43:53.725Z" agent="Mozilla/5.0 (Windows NT 10.0; Win64; x64) AppleWebKit/537.36 (KHTML, like Gecko) Chrome/111.0.0.0 Safari/537.36" version="21.2.9" etag="7VnSRSHCV86S8LecPSbW" type="github">
  <diagram name="第 1 页" id="IVuBjpUKOHK4yb3LEGwn">
    <mxGraphModel>
      <root>
        <mxCell id="0" />
        <mxCell id="1" parent="0" />
      </root>
    </mxGraphModel>
  </diagram>
</mxfile>
